<svg class="ldi-t0zyq7" width="315px"  height="315px"   viewBox="0 0 100 100" preserveAspectRatio="xMidYMid" style="background: none;"><!--?xml version="1.0" encoding="utf-8"?--><!--Generator: Adobe Illustrator 21.0.0, SVG Export Plug-In . SVG Version: 6.00 Build 0)--><svg version="1.1" id="Layer_1"  xmlns:xlink="http://www.w3.org/1999/xlink" x="0px" y="0px" viewBox="0 0 100 100" style="transform-origin: 50px 50px 0px;" xml:space="preserve"><g style="transform-origin: 50px 50px 0px;"><g style="transform-origin: 50px 50px 0px; transform: scale(1);"><g style="transform-origin: 50px 50px 0px; animation-duration: 4.8s; animation-delay: -4.8s; animation-direction: normal;" class=""><g><style type="text/css" class="ld ldt-blur-in" style="transform-origin: 50px 50px 0px; animation-duration: 5.1s; animation-delay: 0s; animation-direction: normal;">.st0{fill:#333}.st1,.st2{stroke-width:3.5;stroke-miterlimit:10}.st1{fill:url(#SVGID_1_);stroke:#333}.st2{opacity:.5;stroke:#000}.st3{fill:#666766;stroke:#333}.st3,.st4,.st5{stroke-width:3.5;stroke-miterlimit:10}.st4{opacity:.5;stroke-linejoin:round;stroke:#000}.st5{fill:none;stroke:#333;stroke-linecap:round}.st6{opacity:.5}.st7,.st8{stroke:#333;stroke-width:3.5}.st7{stroke-miterlimit:10;fill:none}.st8{fill:#849b87}.st10,.st11,.st8,.st9{stroke-miterlimit:10}.st9{opacity:.2;stroke-width:3.5;stroke-linejoin:round;stroke:#000}.st10,.st11{stroke:#333}.st10{stroke-width:3.5;fill:#e15c64}.st11{fill:#fff}.st11,.st12,.st13{stroke-width:3.5}.st12{opacity:.2;stroke-linecap:round;stroke-linejoin:round;stroke-miterlimit:10;stroke:#000}.st13{fill:#acbd81;stroke:#333}.st13,.st14,.st15,.st16{stroke-miterlimit:10}.st14{fill:#e0e0e0;stroke:#333;stroke-width:5.6375}.st15,.st16{stroke-width:5.638;stroke-linejoin:round}.st15{fill:#f0d848;stroke:#333}.st16{opacity:.2;stroke:#000;stroke-linecap:round}.st17,.st18,.st19{fill:#f4e6c8;stroke:#333;stroke-width:3.5;stroke-miterlimit:10}.st18,.st19{stroke:#fff;stroke-linecap:round}.st19{stroke:#f47e5f}.st20{fill:#acbd81}.st21{fill:#e0e0e0;stroke:#333;stroke-width:3.5;stroke-miterlimit:10}.st22{fill:#b92025}.st23,.st24{fill:none;stroke:#333;stroke-width:9;stroke-linecap:round;stroke-miterlimit:10}.st24{stroke-width:6}.st25{fill:#a0c8d7}.st26{opacity:.2}.st27,.st28{stroke-width:3.5}.st27{opacity:.2;stroke:#000;stroke-miterlimit:10}.st28{fill-rule:evenodd;clip-rule:evenodd;fill:#ffdc6e}.st28,.st29,.st30{stroke:#333;stroke-miterlimit:10}.st29{stroke-linecap:round;fill:none;stroke-width:2.8104}.st30{fill:#fff;stroke-width:3.7002}.st31,.st32{fill-rule:evenodd;clip-rule:evenodd;stroke-width:3.5}.st31{fill:none;stroke-linecap:round;stroke-miterlimit:10;stroke:#fff}.st32{opacity:.2;stroke:#000;stroke-linejoin:round}.st32,.st33,.st34,.st35{stroke-miterlimit:10}.st33{fill:#849b87;stroke:#333;stroke-width:3.7002}.st34,.st35{stroke-width:3.7}.st34{fill:#849b87;stroke-linecap:round;stroke:#fff}.st35{opacity:.2;stroke:#000}.st36{fill:#e0e0e0}.st37{fill:#fff}.st38,.st39{fill:#acbd81;stroke:#333;stroke-width:3.5;stroke-linecap:round;stroke-linejoin:round;stroke-miterlimit:10}.st39{fill:none}.st40{fill:#f4e6c8}.st41{fill:#acbd81;stroke:#fff;stroke-width:3.5;stroke-linecap:round;stroke-linejoin:round;stroke-miterlimit:10}.st42{fill:#67503b}.st43{fill:#a0c8d7;stroke:#333}.st43,.st44,.st45,.st46,.st47,.st48,.st49{stroke-width:3.5;stroke-miterlimit:10}.st44{stroke-linecap:round;fill:#a0c8d7;stroke:#fff}.st45,.st46,.st47,.st48,.st49{fill:#f47e5f;stroke:#333}.st46,.st47,.st48,.st49{fill:none;stroke:#fff;stroke-linecap:round}.st47,.st48,.st49{fill:#e0e0e0;stroke:#333}.st48,.st49{fill:#fff}.st49{fill:#e0e0e0;stroke:#fff}.st50{fill:#fcdc4f}.st51{fill:#407cae}.st52{fill:none}.st53{fill:#fefefe}.st54{fill:none;stroke:#a0c8d7;stroke-width:3.5;stroke-miterlimit:10}.st55,.st56{stroke-linecap:round}.st55{stroke:#fff;stroke-width:2.5;stroke-miterlimit:10;fill:none}.st56{fill:#f4e6c8}.st56,.st57,.st58{stroke:#333;stroke-width:3.5;stroke-miterlimit:10}.st57{stroke-linecap:round;fill:#f47e5f}.st58{fill:#f7b26a}.st59{fill:#849b87}.st60{fill:#e15c64}.st61,.st62,.st63,.st64{fill:none;stroke:#fff;stroke-width:2.1185;stroke-miterlimit:10}.st62,.st63,.st64{stroke-width:2.3545}.st63,.st64{fill:#fff}.st64{fill:#f4e6c8;stroke:#333;stroke-width:5.6375}.st65{fill:#c33837;stroke:#333;stroke-width:5.638;stroke-linecap:round;stroke-linejoin:round}.st65,.st66,.st67,.st68{stroke-miterlimit:10}.st66{opacity:.2;stroke:#000;stroke-linejoin:round;stroke-width:5.638}.st67,.st68{stroke-width:3.5}.st67{fill:#f47e5f;stroke-linecap:round;stroke:#fff}.st68{stroke:#333}.st69{fill:#070404}.st70{fill:#c42026}.st71{fill:#010101}.st72{opacity:.4}.st73{fill:#666766}.st74,.st75,.st76,.st77{fill:none;stroke-miterlimit:10}.st74{stroke:#fff;stroke-linecap:round;stroke-width:3}.st75,.st76,.st77{stroke-width:3.5}.st75{stroke-linejoin:round;stroke:#333}.st76,.st77{stroke:#e0e0e0}.st77{stroke:#e15c64}.st78{fill:none;stroke:#77a4bd}.st78,.st79,.st80{stroke-width:3.5;stroke-miterlimit:10}.st79{stroke-linejoin:round;fill:none;stroke:#f4e6c8}.st80{fill:#acbd81;stroke:#fff;stroke-linecap:round}.st81{stroke:#333434;stroke-linejoin:round}.st81,.st82,.st83{fill:#77a4bd;stroke-width:3.5;stroke-miterlimit:10}.st82{stroke-linejoin:round;stroke:#fff}.st83{stroke:#e0e0e0}.st83,.st84,.st85,.st86{stroke-linejoin:round}.st84{fill:none;stroke-width:3.5;stroke-linecap:round;stroke-miterlimit:10;stroke:#e0e0e0}.st85,.st86{stroke:#333}.st85{stroke-width:3.5;stroke-miterlimit:10;fill:#e0e0e0}.st86{fill:#e15c64}.st86,.st87,.st88,.st89,.st90,.st91{stroke-width:3.5;stroke-miterlimit:10}.st87{fill:#f7b26a;stroke-linecap:round;stroke:#fff}.st88,.st89,.st90,.st91{stroke:#000}.st89,.st90,.st91{fill-rule:evenodd;clip-rule:evenodd;fill:#fff;stroke:#333}.st90,.st91{fill:#e0e0e0}.st91{fill:none;stroke:#fff;stroke-linejoin:round}.st91,.st92,.st93{stroke-linecap:round}.st92{stroke-width:3.5;stroke-linejoin:round;stroke-miterlimit:10;fill:none;stroke:#fff}.st93{fill:#67503b;stroke:#333}.st93,.st94,.st95,.st96{stroke-width:3.5;stroke-miterlimit:10}.st94{stroke-linecap:round;fill:#67503b;stroke:#fff}.st95,.st96{fill:#333;stroke:#333}.st96{fill:url(#SVGID_2_)}.st97{fill:#f47e5f}.st98,.st99{stroke-miterlimit:10}.st98{opacity:.2;stroke-width:3.5;stroke-linecap:round;stroke:#000}.st99{fill:#fff;stroke:#333}.st100{opacity:.3}.st101{stroke:#333;stroke-miterlimit:10}.st102{fill:#e6e6e6}</style><g style="transform-origin: 50px 50px 0px;"><g><g class="ld ldt-blur-in" style="transform-origin: 50px 50px 0px; animation-duration: 5.1s; animation-delay: 0.118605s; animation-direction: normal;"><polyline class="st7" points="63.468,67.821 72.419,76.984 79.667,76.983 	" stroke="rgb(51, 51, 51)" style="stroke: rgb(51, 51, 51);"></polyline></g><g class="ld ldt-blur-in" style="transform-origin: 50px 50px 0px; animation-duration: 5.1s; animation-delay: 0.237209s; animation-direction: normal;"><circle class="st11" cx="79.667" cy="76.984" r="3.662" stroke="rgb(51, 51, 51)" fill="rgb(255, 255, 255)" style="stroke: rgb(51, 51, 51); fill: rgb(255, 255, 255);"></circle></g></g></g><g style="transform-origin: 50px 50px 0px;"><g><g class="ld ldt-blur-in" style="transform-origin: 50px 50px 0px; animation-duration: 5.1s; animation-delay: 0.355814s; animation-direction: normal;"><polyline class="st7" points="41.72,74.355 33.953,83.675 19.085,83.675 	" stroke="rgb(51, 51, 51)" style="stroke: rgb(51, 51, 51);"></polyline></g><g class="ld ldt-blur-in" style="transform-origin: 50px 50px 0px; animation-duration: 5.1s; animation-delay: 0.474419s; animation-direction: normal;"><circle class="st11" cx="19.861" cy="83.675" r="3.662" stroke="rgb(51, 51, 51)" fill="rgb(255, 255, 255)" style="stroke: rgb(51, 51, 51); fill: rgb(255, 255, 255);"></circle></g></g></g><g style="transform-origin: 50px 50px 0px;"><g><g class="ld ldt-blur-in" style="transform-origin: 50px 50px 0px; animation-duration: 5.1s; animation-delay: 0.593023s; animation-direction: normal;"><line class="st7" x1="73.72" y1="36.043" x2="80.555" y2="28.863" stroke="rgb(51, 51, 51)" style="stroke: rgb(51, 51, 51);"></line></g><g class="ld ldt-blur-in" style="transform-origin: 50px 50px 0px; animation-duration: 5.1s; animation-delay: 0.711628s; animation-direction: normal;"><circle class="st11" cx="80.166" cy="29.271" r="3.662" stroke="rgb(51, 51, 51)" fill="rgb(255, 255, 255)" style="stroke: rgb(51, 51, 51); fill: rgb(255, 255, 255);"></circle></g></g></g><g style="transform-origin: 50px 50px 0px;"><g><g class="ld ldt-blur-in" style="transform-origin: 50px 50px 0px; animation-duration: 5.1s; animation-delay: 0.830233s; animation-direction: normal;"><path class="st40" d="M42.34,24.36c-4.059,0-7.361,3.302-7.361,7.361c0,1.838,0.681,3.598,1.918,4.956 c0.349,0.384,0.679,0.652,1.042,0.908c0.891-1.913,2.538-3.418,4.586-4.081l0.702,2.167c-0.267,0.086-0.521,0.199-0.767,0.323 c-1.429,0.724-2.49,2.056-2.841,3.642c-0.298,1.344-0.068,2.718,0.616,3.884c0.139,0.237,0.291,0.469,0.468,0.687l-1.767,1.438 c-0.332-0.408-0.61-0.845-0.848-1.3c-0.717-1.368-1.004-2.914-0.815-4.461c-0.716-0.464-1.348-0.89-2.061-1.675 c-1.044-1.146-1.781-2.513-2.176-3.984c-0.102-0.378-0.176-0.764-0.231-1.154c-3.237,0.785-5.637,3.726-5.637,7.149 c0,1.984,0.806,3.866,2.213,5.247c0.116,0.114,0.228,0.231,0.352,0.337l-1.485,1.727c-0.666-0.573-1.232-1.234-1.712-1.948 c-0.13-0.194-0.258-0.389-0.374-0.592c-1.23,1.343-1.924,3.081-1.924,4.95c0,1.87,0.694,3.609,1.925,4.952 c0.117-0.204,0.239-0.404,0.371-0.599c0.537-0.797,1.187-1.526,1.958-2.146l0.714,0.888l0,0l0,0l0.714,0.888 c-0.122,0.098-0.231,0.207-0.346,0.311c-1.53,1.395-2.407,3.344-2.407,5.429c0,3.423,2.4,6.364,5.636,7.149 c0.058-0.418,0.142-0.828,0.253-1.231c0.388-1.407,1.093-2.706,2.084-3.816c-0.497-1.424-0.672-2.982-0.441-4.575 c0.136-0.937,0.405-1.843,0.801-2.692l1.569,0.731l0.495,0.231c-0.141,0.303-0.259,0.616-0.357,0.936 c-0.112,0.365-0.198,0.739-0.253,1.121c-0.495,3.417,1.421,6.635,4.539,7.879c0.307,0.123,0.623,0.233,0.952,0.315l-0.552,2.211 c-2.384-0.596-4.343-2.029-5.63-3.92c-0.837,1.215-1.286,2.651-1.286,4.162c0,4.059,3.302,7.362,7.361,7.362 c4.059,0,7.362-3.302,7.362-7.362V31.721C49.702,27.662,46.399,24.36,42.34,24.36z" fill="rgb(244, 230, 200)" style="fill: rgb(244, 230, 200);"></path></g><g class="ld ldt-blur-in" style="transform-origin: 50px 50px 0px; animation-duration: 5.1s; animation-delay: 0.948837s; animation-direction: normal;"><path class="st0" d="M42.347,22.082c-4.988,0-9.102,3.808-9.59,8.669c-4.48,0.844-7.859,4.821-7.859,9.47 c0,0.856,0.126,1.694,0.344,2.504c-2.057,1.819-3.273,4.456-3.273,7.219c0,2.763,1.216,5.398,3.271,7.217 c-0.217,0.808-0.342,1.646-0.342,2.506c0,4.649,3.379,8.626,7.859,9.47c0.488,4.861,4.602,8.669,9.59,8.669 c5.315,0,9.64-4.324,9.64-9.64V31.721C51.987,26.406,47.662,22.082,42.347,22.082z M49.709,68.167c0,4.059-3.302,7.362-7.362,7.362 c-4.059,0-7.361-3.302-7.361-7.362c0-1.511,0.45-2.947,1.286-4.162c1.287,1.891,3.246,3.325,5.63,3.92l0.552-2.211 c-3.674-0.917-6.035-4.44-5.491-8.194c0.104-0.718,0.309-1.409,0.611-2.057l-2.064-0.962c-0.396,0.849-0.665,1.755-0.801,2.692 c-0.23,1.593-0.056,3.151,0.441,4.575c-1.273,1.427-2.075,3.168-2.336,5.047c-3.236-0.785-5.636-3.726-5.636-7.149 c0-2.242,1.004-4.334,2.753-5.74l-1.427-1.776c-0.96,0.772-1.737,1.709-2.329,2.745c-1.231-1.343-1.925-3.082-1.925-4.952 c0-1.869,0.694-3.607,1.924-4.95c0.541,0.948,1.238,1.811,2.085,2.54l1.485-1.727c-1.63-1.401-2.565-3.437-2.565-5.585 c0-3.423,2.4-6.365,5.637-7.149c0.269,1.908,1.094,3.697,2.407,5.138c0.714,0.785,1.346,1.211,2.061,1.675 c-0.252,2.062,0.333,4.126,1.662,5.761l1.767-1.438c-1.047-1.287-1.443-2.953-1.084-4.571c0.411-1.859,1.794-3.378,3.607-3.965 l-0.702-2.167c-2.047,0.662-3.695,2.168-4.586,4.081c-0.363-0.257-0.693-0.525-1.042-0.908c-1.237-1.358-1.918-3.117-1.918-4.956 c0-4.059,3.302-7.361,7.361-7.361c4.059,0,7.362,3.302,7.362,7.361V68.167z" fill="rgb(51, 51, 51)" style="fill: rgb(51, 51, 51);"></path></g></g></g><g style="transform-origin: 50px 50px 0px;"><g><g class="ld ldt-blur-in" style="transform-origin: 50px 50px 0px; animation-duration: 5.1s; animation-delay: 1.06744s; animation-direction: normal;"><path class="st40" d="M59.297,24.36c4.059,0,7.361,3.302,7.361,7.361c0,1.838-0.681,3.598-1.918,4.956 c-0.349,0.384-0.679,0.652-1.042,0.908c-0.891-1.913-2.538-3.418-4.586-4.081l-0.702,2.167c0.267,0.086,0.521,0.199,0.767,0.323 c1.429,0.724,2.49,2.056,2.841,3.642c0.298,1.344,0.068,2.718-0.616,3.884c-0.139,0.237-0.291,0.469-0.468,0.687l1.767,1.438 c0.332-0.408,0.61-0.845,0.848-1.3c0.717-1.368,1.004-2.914,0.815-4.461c0.716-0.464,1.348-0.89,2.061-1.675 c1.044-1.146,1.781-2.513,2.176-3.984c0.102-0.378,0.176-0.764,0.231-1.154c3.237,0.785,5.637,3.726,5.637,7.149 c0,1.984-0.806,3.866-2.213,5.247c-0.116,0.114-0.228,0.231-0.352,0.337l1.485,1.727c0.666-0.573,1.232-1.234,1.712-1.948 c0.13-0.194,0.258-0.389,0.374-0.592c1.23,1.343,1.924,3.081,1.924,4.95c0,1.87-0.694,3.609-1.925,4.952 c-0.117-0.204-0.239-0.404-0.371-0.599c-0.537-0.797-1.187-1.526-1.958-2.146l-0.714,0.888l0,0l0,0l-0.714,0.888 c0.122,0.098,0.231,0.207,0.346,0.311c1.53,1.395,2.407,3.344,2.407,5.429c0,3.423-2.4,6.364-5.636,7.149 c-0.058-0.418-0.142-0.828-0.253-1.231c-0.388-1.407-1.093-2.706-2.084-3.816c0.497-1.424,0.672-2.982,0.441-4.575 c-0.136-0.937-0.405-1.843-0.801-2.692l-1.569,0.731l-0.495,0.231c0.141,0.303,0.259,0.616,0.357,0.936 c0.112,0.365,0.198,0.739,0.253,1.121c0.495,3.417-1.421,6.635-4.539,7.879c-0.307,0.123-0.622,0.233-0.952,0.315l0.552,2.211 c2.384-0.596,4.343-2.029,5.63-3.92c0.837,1.215,1.286,2.651,1.286,4.162c0,4.059-3.302,7.362-7.361,7.362 c-4.059,0-7.362-3.302-7.362-7.362V31.721C51.935,27.662,55.237,24.36,59.297,24.36z" fill="rgb(244, 230, 200)" style="fill: rgb(244, 230, 200);"></path></g><g class="ld ldt-blur-in" style="transform-origin: 50px 50px 0px; animation-duration: 5.1s; animation-delay: 1.18605s; animation-direction: normal;"><path class="st0" d="M49.65,31.721v36.446c0,5.315,4.324,9.64,9.64,9.64c4.988,0,9.102-3.808,9.59-8.669 c4.48-0.844,7.859-4.821,7.859-9.47c0-0.859-0.125-1.698-0.342-2.506c2.055-1.819,3.271-4.455,3.271-7.217 c0-2.763-1.216-5.4-3.273-7.219c0.218-0.809,0.344-1.648,0.344-2.504c0-4.649-3.379-8.626-7.859-9.47 c-0.488-4.862-4.602-8.669-9.59-8.669C53.974,22.082,49.65,26.406,49.65,31.721z M51.928,31.721c0-4.059,3.302-7.361,7.362-7.361 c4.059,0,7.361,3.302,7.361,7.361c0,1.838-0.681,3.598-1.918,4.956c-0.349,0.384-0.679,0.652-1.042,0.908 c-0.891-1.913-2.538-3.418-4.586-4.081l-0.702,2.167c1.814,0.587,3.196,2.106,3.607,3.965c0.358,1.618-0.037,3.284-1.084,4.571 l1.767,1.438c1.33-1.635,1.914-3.699,1.662-5.761c0.716-0.464,1.348-0.89,2.061-1.675c1.313-1.441,2.138-3.23,2.407-5.138 c3.237,0.785,5.637,3.726,5.637,7.149c0,2.148-0.935,4.183-2.565,5.585l1.485,1.727c0.847-0.729,1.544-1.592,2.085-2.54 c1.23,1.343,1.924,3.081,1.924,4.95c0,1.87-0.694,3.609-1.925,4.952c-0.592-1.036-1.369-1.973-2.329-2.745l-1.427,1.776 c1.75,1.407,2.753,3.499,2.753,5.74c0,3.423-2.4,6.364-5.636,7.149c-0.261-1.879-1.063-3.619-2.336-5.047 c0.497-1.424,0.672-2.982,0.441-4.575c-0.136-0.937-0.405-1.843-0.801-2.692l-2.064,0.962c0.302,0.648,0.507,1.339,0.611,2.057 c0.543,3.754-1.817,7.277-5.491,8.194l0.552,2.211c2.384-0.596,4.343-2.029,5.63-3.92c0.837,1.215,1.286,2.651,1.286,4.162 c0,4.059-3.302,7.362-7.361,7.362c-4.059,0-7.362-3.302-7.362-7.362V31.721z" fill="rgb(51, 51, 51)" style="fill: rgb(51, 51, 51);"></path></g></g></g><g style="transform-origin: 50px 50px 0px;"><g><g class="ld ldt-blur-in" style="transform-origin: 50px 50px 0px; animation-duration: 5.1s; animation-delay: 1.30465s; animation-direction: normal;"><line class="st7" x1="42.053" y1="24.36" x2="42.053" y2="14.882" stroke="rgb(51, 51, 51)" style="stroke: rgb(51, 51, 51);"></line></g><g class="ld ldt-blur-in" style="transform-origin: 50px 50px 0px; animation-duration: 5.1s; animation-delay: 1.42326s; animation-direction: normal;"><circle class="st11" cx="42.053" cy="13.662" r="3.662" stroke="rgb(51, 51, 51)" fill="rgb(255, 255, 255)" style="stroke: rgb(51, 51, 51); fill: rgb(255, 255, 255);"></circle></g></g></g><g style="transform-origin: 50px 50px 0px;"><g><g class="ld ldt-blur-in" style="transform-origin: 50px 50px 0px; animation-duration: 5.1s; animation-delay: 1.54186s; animation-direction: normal;"><polyline class="st7" points="59.695,23.759 66.056,14.882 77.596,14.882 	" stroke="rgb(51, 51, 51)" style="stroke: rgb(51, 51, 51);"></polyline></g><g class="ld ldt-blur-in" style="transform-origin: 50px 50px 0px; animation-duration: 5.1s; animation-delay: 1.66047s; animation-direction: normal;"><circle class="st11" cx="77.596" cy="14.882" r="3.662" stroke="rgb(51, 51, 51)" fill="rgb(255, 255, 255)" style="stroke: rgb(51, 51, 51); fill: rgb(255, 255, 255);"></circle></g></g></g><g style="transform-origin: 50px 50px 0px;"><g><g class="ld ldt-blur-in" style="transform-origin: 50px 50px 0px; animation-duration: 5.1s; animation-delay: 1.77907s; animation-direction: normal;"><line class="st7" x1="77.531" y1="52.681" x2="84.521" y2="52.681" stroke="rgb(51, 51, 51)" style="stroke: rgb(51, 51, 51);"></line></g><g class="ld ldt-blur-in" style="transform-origin: 50px 50px 0px; animation-duration: 5.1s; animation-delay: 1.89767s; animation-direction: normal;"><circle class="st11" cx="84.688" cy="52.681" r="3.662" stroke="rgb(51, 51, 51)" fill="rgb(255, 255, 255)" style="stroke: rgb(51, 51, 51); fill: rgb(255, 255, 255);"></circle></g></g></g><g style="transform-origin: 50px 50px 0px;"><g><g class="ld ldt-blur-in" style="transform-origin: 50px 50px 0px; animation-duration: 5.1s; animation-delay: 2.01628s; animation-direction: normal;"><line class="st7" x1="59.29" y1="76.919" x2="59.29" y2="86.338" stroke="rgb(51, 51, 51)" style="stroke: rgb(51, 51, 51);"></line></g><g class="ld ldt-blur-in" style="transform-origin: 50px 50px 0px; animation-duration: 5.1s; animation-delay: 2.13488s; animation-direction: normal;"><circle class="st11" cx="59.29" cy="86.338" r="3.662" stroke="rgb(51, 51, 51)" fill="rgb(255, 255, 255)" style="stroke: rgb(51, 51, 51); fill: rgb(255, 255, 255);"></circle></g></g></g><g style="transform-origin: 50px 50px 0px;"><g><g class="ld ldt-blur-in" style="transform-origin: 50px 50px 0px; animation-duration: 5.1s; animation-delay: 2.25349s; animation-direction: normal;"><polyline class="st7" points="30.402,32.413 23.967,25.534 15.312,25.534 	" stroke="rgb(51, 51, 51)" style="stroke: rgb(51, 51, 51);"></polyline></g><g class="ld ldt-blur-in" style="transform-origin: 50px 50px 0px; animation-duration: 5.1s; animation-delay: 2.37209s; animation-direction: normal;"><circle class="st11" cx="15.312" cy="25.534" r="3.662" stroke="rgb(51, 51, 51)" fill="rgb(255, 255, 255)" style="stroke: rgb(51, 51, 51); fill: rgb(255, 255, 255);"></circle></g></g></g><g style="transform-origin: 50px 50px 0px;"><g><g class="ld ldt-blur-in" style="transform-origin: 50px 50px 0px; animation-duration: 5.1s; animation-delay: 2.4907s; animation-direction: normal;"><line class="st7" x1="29.41" y1="66.366" x2="18.197" y2="66.366" stroke="rgb(51, 51, 51)" style="stroke: rgb(51, 51, 51);"></line></g><g class="ld ldt-blur-in" style="transform-origin: 50px 50px 0px; animation-duration: 5.1s; animation-delay: 2.6093s; animation-direction: normal;"><circle class="st11" cx="18.234" cy="66.366" r="3.662" stroke="rgb(51, 51, 51)" fill="rgb(255, 255, 255)" style="stroke: rgb(51, 51, 51); fill: rgb(255, 255, 255);"></circle></g></g></g><metadata  class="ld ldt-blur-in" style="transform-origin: 50px 50px 0px; animation-duration: 5.1s; animation-delay: 2.72791s; animation-direction: normal;">
 
</metadata></g></g></g></g><style type="text/css" class="ld ldt-blur-in" style="transform-origin: 50px 50px 0px; animation-duration: 5.1s; animation-delay: 3.32093s; animation-direction: normal;">@keyframes ldt-blur-in {
  0% {
    filter: blur(5px);
    opacity: 0;
  }
  90% {
    filter: blur(0px);
    opacity: 1;
  }
  100% {
    filter: blur(0px);
    opacity: 1;
  }
}
@-webkit-keyframes ldt-blur-in {
  0% {
    filter: blur(5px);
    opacity: 0;
  }
  90% {
    filter: blur(0px);
    opacity: 1;
  }
  100% {
    filter: blur(0px);
    opacity: 1;
  }
}
.ldt-blur-in {
  filter: blur(5px);
  opacity: 0;
  -webkit-animation: ldt-blur-in 1s cubic-bezier(0, 0.5, 0.5, 1) forwards;
  animation: ldt-blur-in 1s cubic-bezier(0, 0.5, 0.5, 1) forwards;
}
</style></svg></svg>