<svg class="ldi-q7jvhx" width="315px"  height="315px" viewBox="0 0 100 100" preserveAspectRatio="xMidYMid" style="background: none;"><!--?xml version="1.0" encoding="utf-8"?--><!--Generator: Adobe Illustrator 21.0.0, SVG Export Plug-In . SVG Version: 6.00 Build 0)--><svg version="1.1" id="圖層_1" xmlns="http://www.w3.org/2000/svg" x="0px" y="0px" viewBox="0 0 100 100" enable-background="new 0 0 100 100" xml:space="preserve" style="transform-origin: 50px 50px 0px;"><g style="transform-origin: 50px 50px 0px;"><g style="transform-origin: 50px 50px 0px; transform: scale(1);"><g style="transform-origin: 50px 50px 0px;"><g><g class="ld ld-breath" style="transform-origin: 50px 50px 0px; animation-duration: 0.8s; animation-delay: -0.8s; animation-direction: normal;"><path fill="#ff7855" stroke="rgb(0, 0, 0)" stroke-width="3" stroke-linecap="round" stroke-linejoin="round" stroke-miterlimit="10" d=" M91.864,35.714c0-3.52-1.31-6.732-3.467-9.182c0.194-0.7,0.306-1.435,0.306-2.197c0-4.539-3.679-8.218-8.218-8.218 c-0.13,0-0.257,0.013-0.385,0.019c-1.86-2.964-4.558-5.452-7.957-7.056c-7.886-3.721-17.036-1.53-22.46,4.773 c-1.092-0.57-2.332-0.897-3.649-0.897c-4.212,0-7.644,3.297-7.879,7.45c-6.202,1.661-10.769,7.317-10.769,14.043 c0,6.986,4.928,12.82,11.498,14.218c0.933,7.661,7.456,13.596,15.368,13.596c4.421,0,8.406-1.855,11.228-4.826 c2.525,2.586,6.049,4.194,9.949,4.194c7.681,0,13.907-6.226,13.907-13.907c0-1.188-0.15-2.34-0.43-3.441 C90.757,41.922,91.864,38.948,91.864,35.714z" style="fill: rgb(255, 120, 85); stroke: rgb(0, 0, 0);"></path></g><g style="transform-origin: 50px 50px 0px;"><g><g class="ld ld-breath" style="transform-origin: 50px 50px 0px; animation-duration: 0.8s; animation-delay: -0.757895s; animation-direction: normal;"><ellipse fill="#ff7855" stroke="rgb(0, 0, 0)" stroke-width="3" stroke-linecap="round" stroke-linejoin="round" stroke-miterlimit="10" cx="11.272" cy="54.417" rx="3.135" ry="2.981" style="fill: rgb(255, 120, 85); stroke: rgb(0, 0, 0);"></ellipse></g><g class="ld ld-breath" style="transform-origin: 50px 50px 0px; animation-duration: 0.8s; animation-delay: -0.715789s; animation-direction: normal;"><path fill="#ff7855" stroke="rgb(0, 0, 0)" stroke-width="3" stroke-linecap="round" stroke-linejoin="round" stroke-miterlimit="10" d=" M19.993,40.827c1.54,1.464,1.54,3.838,0,5.302c-1.54,1.464-4.037,1.464-5.577,0c-1.54-1.464-1.54-3.838,0-5.302 C15.956,39.363,18.453,39.363,19.993,40.827z" style="fill: rgb(255, 120, 85); stroke: rgb(0, 0, 0);"></path></g></g></g><g style="transform-origin: 50px 50px 0px;"><g><g class="ld ld-breath" style="transform-origin: 50px 50px 0px; animation-duration: 0.8s; animation-delay: -0.673684s; animation-direction: normal;"><path fill="rgb(252, 233, 242)" stroke="rgb(0, 0, 0)" stroke-width="3" stroke-linecap="round" stroke-linejoin="round" stroke-miterlimit="10" d=" M48.906,75.106c0-8.068-7.846-14.608-17.526-14.608c-7.301,0-13.557,3.722-16.192,9.014h-1.821c-1.315,0-2.381,1.048-2.381,2.342 v5.884c0,1.293,1.066,2.342,2.381,2.342H14.9c1.086,2.498,2.962,4.68,5.382,6.332l-1.165,4.228l8.001,2.097 c0.358-1.318,0.717-2.636,1.075-3.954c0.765,0.36,1.846,0.76,3.186,0.932c2.54,0.327,4.575-0.347,5.576-0.76l1.042,3.781 l8.001-2.097l-1.588-5.766C47.204,82.285,48.906,78.861,48.906,75.106z" style="stroke: rgb(0, 0, 0); fill: rgb(252, 233, 242);"></path></g><g class="ld ld-breath" style="transform-origin: 50px 50px 0px; animation-duration: 0.8s; animation-delay: -0.631579s; animation-direction: normal;"><path fill="rgb(255, 255, 255)" stroke="rgb(0, 0, 0)" stroke-width="3" stroke-linecap="round" stroke-linejoin="round" stroke-miterlimit="10" d=" M36.363,66.321c-1.526-0.851-3.129-1.218-4.729-0.997c-0.316,0.043-0.625,0.109-0.928,0.195" style="stroke: rgb(0, 0, 0); fill: rgb(255, 255, 255);"></path></g><g class="ld ld-breath" style="transform-origin: 50px 50px 0px; animation-duration: 0.8s; animation-delay: -0.589474s; animation-direction: normal;"><path fill="rgb(239, 102, 178)" stroke="rgb(0, 0, 0)" stroke-width="3" stroke-linecap="round" stroke-linejoin="round" stroke-miterlimit="10" d=" M24.085,59.073c-2.098-1.708-5.184-1.393-6.892,0.705l7.598,6.187C26.499,63.867,26.183,60.781,24.085,59.073z" style="stroke: rgb(0, 0, 0); fill: rgb(239, 102, 178);"></path></g><g class="ld ld-breath" style="transform-origin: 50px 50px 0px; animation-duration: 0.8s; animation-delay: -0.547368s; animation-direction: normal;"><ellipse transform="matrix(0.7071 -0.7071 0.7071 0.7071 -43.5999 36.0621)" stroke="rgb(0, 0, 0)" stroke-width="0.25" stroke-linecap="round" stroke-linejoin="round" stroke-miterlimit="10" cx="21.731" cy="70.661" rx="1.742" ry="1.742" fill="rgb(0, 0, 0)" style="fill: rgb(0, 0, 0); stroke: rgb(0, 0, 0);"></ellipse></g><g class="ld ld-breath" style="transform-origin: 50px 50px 0px; animation-duration: 0.8s; animation-delay: -0.505263s; animation-direction: normal;"><path fill="none" stroke="rgb(0, 0, 0)" stroke-width="3" stroke-linecap="round" stroke-linejoin="round" stroke-miterlimit="10" d=" M49.114,74.693c0.959-1.616,2.696-2.638,4.493-3.187c0.974-0.297,2.157-0.43,2.898,0.268c0.619,0.584,0.69,1.576,0.403,2.377 c-0.29,0.809-0.975,1.534-1.831,1.617c-0.767,0.075-1.526-0.395-1.918-1.059c-0.392-0.664-0.453-1.486-0.301-2.241 c0.322-1.598,1.613-2.959,3.191-3.365c0.504-0.13,1.103-0.124,1.552,0.097" style="stroke: rgb(0, 0, 0);"></path></g></g></g><metadata class="ld ld-breath" style="transform-origin: 50px 50px 0px; animation-duration: 0.8s; animation-delay: -0.463158s; animation-direction: normal;">

</metadata></g></g></g></g><style type="text/css" class="ld ld-breath" style="transform-origin: 50px 50px 0px; animation-duration: 0.8s; animation-delay: -0.252632s; animation-direction: normal;">@keyframes ld-breath {
  0% {
    -webkit-transform: scale(0.86);
    transform: scale(0.86);
  }
  50% {
    -webkit-transform: scale(1.06);
    transform: scale(1.06);
  }
  100% {
    -webkit-transform: scale(0.86);
    transform: scale(0.86);
  }
}
@-webkit-keyframes ld-breath {
  0% {
    -webkit-transform: scale(0.86);
    transform: scale(0.86);
  }
  50% {
    -webkit-transform: scale(1.06);
    transform: scale(1.06);
  }
  100% {
    -webkit-transform: scale(0.86);
    transform: scale(0.86);
  }
}
.ld.ld-breath {
  -webkit-animation: ld-breath 1s infinite;
  animation: ld-breath 1s infinite;
}
</style></svg></svg>