<?xml version="1.0" encoding="iso-8859-1"?>
<!-- Generator: Adobe Illustrator 19.0.0, SVG Export Plug-In . SVG Version: 6.00 Build 0)  -->
<svg version="1.1" id="Capa_1" xmlns="http://www.w3.org/2000/svg" xmlns:xlink="http://www.w3.org/1999/xlink" x="0px" y="0px"
	 viewBox="0 0 512 512" style="enable-background:new 0 0 512 512;" xml:space="preserve">
<path id="SVGCleanerId_0" style="fill:#F0E4D6;" d="M0,256L0,256c89.132-141.383,276.003-183.746,417.395-94.605
	C455.592,185.476,487.918,217.803,512,256l0,0c-89.132,141.383-276.003,183.746-417.395,94.605C56.408,326.524,24.082,294.197,0,256
	z"/>
<g>
	<path id="SVGCleanerId_0_1_" style="fill:#F0E4D6;" d="M0,256L0,256c89.132-141.383,276.003-183.746,417.395-94.605
		C455.592,185.476,487.918,217.803,512,256l0,0c-89.132,141.383-276.003,183.746-417.395,94.605
		C56.408,326.524,24.082,294.197,0,256z"/>
</g>
<circle style="fill:#4398D1;" cx="256" cy="256" r="141.24"/>
<g>
	<rect x="247.17" y="35.31" style="fill:#E8594A;" width="17.655" height="141.24"/>
	<rect x="35.31" y="247.17" style="fill:#E8594A;" width="141.24" height="17.655"/>
	<rect x="247.17" y="335.45" style="fill:#E8594A;" width="17.655" height="141.24"/>
	<path style="fill:#E8594A;" d="M52.966,114.759H35.31V44.138c0-4.873,3.955-8.828,8.828-8.828h70.621v17.655H52.966V114.759z"/>
	<path style="fill:#E8594A;" d="M476.69,114.759h-17.655V52.966h-61.793V35.31h70.621c4.873,0,8.828,3.955,8.828,8.828v70.621
		H476.69z"/>
	<path style="fill:#E8594A;" d="M467.862,476.69h-70.621v-17.655h61.793v-61.793h17.655v70.621
		C476.69,472.735,472.735,476.69,467.862,476.69z"/>
	<path style="fill:#E8594A;" d="M114.759,476.69H44.138c-4.873,0-8.828-3.955-8.828-8.828v-70.621h17.655v61.793h61.793
		L114.759,476.69L114.759,476.69z"/>
</g>
<g>
	<path style="fill:#E8DCCF;" d="M421.173,163.54c-12.12,11.185-24.726,21.742-37.826,31.682
		c33.713,70.188,4.131,154.412-66.057,188.125c-19.121,9.181-40.077,13.93-61.29,13.895C360.051,397.718,456.916,344.267,512,256
		l0,0C488.783,218.959,457.799,187.41,421.173,163.54z"/>
	<path style="fill:#E8DCCF;" d="M129.448,318.42c-20.895,6.312-40.607,11.564-58.483,15.89
		c52.992,40.916,118.087,63.055,185.035,62.932C202.249,397.215,153.176,366.654,129.448,318.42z"/>
</g>
<path style="fill:#3E8FC9;" d="M397.241,256c-0.018-21.045-4.767-41.816-13.895-60.778
	c-80.066,60.954-175.351,99.487-253.899,123.198c34.428,69.941,119.04,98.728,188.981,64.3
	C366.707,358.956,397.268,309.813,397.241,256z"/>
<circle style="fill:#3077A6;" cx="256" cy="256" r="52.966"/>
<rect x="335.45" y="247.17" style="fill:#E8594A;" width="141.24" height="17.655"/>
<g>
</g>
<g>
</g>
<g>
</g>
<g>
</g>
<g>
</g>
<g>
</g>
<g>
</g>
<g>
</g>
<g>
</g>
<g>
</g>
<g>
</g>
<g>
</g>
<g>
</g>
<g>
</g>
<g>
</g>
</svg>
