<svg height="512" viewBox="0 0 64 64" width="512" xmlns="http://www.w3.org/2000/svg"><g id="Face_Detection" data-name="Face Detection"><rect fill="#5aaae7" height="58" rx="4" width="44" x="10" y="3"/><path d="m37 37.54-2-.54v-2.59a7.984 7.984 0 0 0 5-7.41v-6a7.993 7.993 0 0 0 -1.43-4.57 7.977 7.977 0 0 1 3.43 6.57v6a7.984 7.984 0 0 1 -5 7.41z" fill="#3d9ae2"/><path d="m48 46.58v1.42h-28v-1.42a5.49 5.49 0 0 1 .03-.58h25.97v-1.42a5.971 5.971 0 0 0 -.87-3.11 6 6 0 0 1 2.87 5.11z" fill="#3d9ae2"/><path d="m35 34v3a3 3 0 0 1 -6 0v-3z" fill="#ffb655"/><path d="m46 44.58v1.42h-28v-1.42a6.013 6.013 0 0 1 4.42-5.79l6.58-1.79a3 3 0 0 0 6 0l6.58 1.79a6.013 6.013 0 0 1 4.42 5.79z" fill="#00ccb3"/><path d="m35 34v1.42a8.049 8.049 0 0 1 -6 0v-1.42z" fill="#ffa733"/><path d="m31 6h2v2h-2z" fill="#1e81ce"/><path d="m24 56h16v2h-16z" fill="#1e81ce"/><g fill="#96c8ef"><path d="m15 16h-2v-4a1 1 0 0 1 1-1h4v2h-3z"/><path d="m51 16h-2v-3h-3v-2h4a1 1 0 0 1 1 1z"/><path d="m18 51h-4a1 1 0 0 1 -1-1v-4h2v3h3z"/><path d="m50 51h-4v-2h3v-3h2v4a1 1 0 0 1 -1 1z"/></g><path d="m24 21a8 8 0 1 1 16 0h-3l-2-3-4 3z" fill="#787680"/><path d="m37 21-2-3-4 3h-7v6a8 8 0 0 0 16 0v-6z" fill="#ffc477"/><path d="m28 23h2v2h-2z" fill="#cc7400"/><path d="m34 23h2v2h-2z" fill="#cc7400"/><path d="m29 28h6v2h-6z" fill="#ff9811"/></g></svg>